<?xml version="1.0" encoding="UTF-8"?>
<svg id="Capa_1" data-name="Capa 1" xmlns="http://www.w3.org/2000/svg" viewBox="0 0 1920 474.64">
  <defs>
    <style>
      .cls-1 {
        fill: #c5f600;
      }
    </style>
  </defs>
  <path class="cls-1" d="M907.51,251.57c-3.02-16.24-12.89-28.13-25.89-37.65-12.59-9.24-26.97-14.77-41.72-19.42-5.22-1.65-10.52-3.06-15.82-4.41-4.93-1.25-9.91-2.9-14.88-3.8-9.8-1.77-19.7-3.74-28.84-7.84-1.81-.81-3.59-1.71-5.32-2.7-2.46-1.41-5.06-3.41-5.24-6.24-.11-1.72.76-3.4,2.02-4.58,1.26-1.18,2.85-1.93,4.48-2.52,8.72-3.14,18.85-2.47,27.95-1.86,9.79.66,19.52,2.29,28.97,4.93,9.67,2.7,19.06,6.38,28.05,10.86.08.04.17.08.31.15,11.76,4.81,22.74,11.23,32.81,19.5.6.47,1.2.97,1.78,1.47,1.89,1.63,3.76,3.32,5.59,5.01v-100.75c-4.5-1.93-9.03-3.73-13.68-5.31-25.96-8.8-52.78-12.2-80.09-12.28h-.15c-1.39,0-2.78-.04-4.17-.03h-1.5c-4.92,0-9.85.19-14.77.64-.63.03-1.27.08-1.88.17-15.52,1.27-30.76,4.31-45.4,10.51-14.85,6.31-27.33,15.33-36.13,28.33-9.79,12.81-14.36,27.58-13.72,44.18.14,4.23.63,8.57,1.47,13.06,3.04,16.24,12.89,28.13,25.89,37.65,18.33,13.41,41.28,19.97,63.06,25.31,2.65.65,5.31,1.27,7.97,1.86,7.72,1.7,15.52,3.15,23.06,5.57,3.73,1.2,7.39,2.64,10.88,4.45,2.78,1.45,6.63,3.46,6.95,7,.17,1.8-.78,3.56-2.12,4.76-1.34,1.2-3.05,1.93-4.75,2.52-9.19,3.16-19.18,2.95-28.86,2.1-21.35-1.87-41.39-7.3-60.89-16.11-.06-.03-.09-.03-.15-.05-12.45-4.81-24.08-11.23-34.73-19.5-.64-.47-1.25-.94-1.86-1.44-2.04-1.63-3.99-3.35-5.97-5.03v100.78c4.78,1.91,9.59,3.73,14.52,5.31,29.01,9.27,59.02,12.59,89.59,12.31h1.55c4.08,0,8.19-.16,12.3-.4,1.23-.08,2.45-.13,3.68-.24,1.35-.11,2.71-.22,4.04-.36,1.22-.11,2.41-.22,3.62-.39,1.11-.14,2.19-.27,3.29-.41.03,0,.05,0,.11-.03.44-.06.91-.11,1.35-.19,11.87-1.63,23.57-4.54,34.86-9.32,14.85-6.31,27.33-15.3,36.13-28.3,9.79-12.78,14.36-27.55,13.72-44.12-.14-4.26-.63-8.63-1.47-13.11"/>
  <path class="cls-1" d="M105.77,96.36c-23.76,10.04-43.15,25.66-56.83,47.57-21.82,34.95-25.87,72.63-14.79,111.9,9.52,33.72,30.12,59.11,61.16,75.41,32.35,16.98,66.84,20.71,102.6,14.44,12.27-2.15,24.02-5.74,35.21-10.88v-97.31c-.24.21-.47.43-.71.64-25.43,22.38-55.04,28-87.25,20.41-19.81-4.67-34.2-18.31-35.13-40.37-.62-14.82,4.85-26.81,17.15-35.38,10.07-7.02,21.6-9.57,33.59-10.41,23.63-1.65,45.57,2.92,64.76,17.66,2.6,1.99,5.11,4.07,7.58,6.2v-98.33c-15.27-6.93-31.3-11.28-48.12-12.93-27.33-2.67-53.85.66-79.23,11.39"/>
  <path class="cls-1" d="M1485.1,142.37c-9.44-19.68-23.51-34.31-42.2-43.9-18.7-9.58-42.02-14.38-69.98-14.38s-51.28,4.8-69.98,14.38c-18.7,9.59-32.68,24.22-41.93,43.9-9.26,19.69-13.88,44.25-13.88,73.68s4.63,54.43,13.88,73.94c9.26,19.51,23.23,34.15,41.93,43.9,18.7,9.76,42.02,14.63,69.98,14.63s51.27-4.87,69.98-14.63c18.69-9.76,32.76-24.39,42.2-43.9,9.44-19.52,14.16-44.16,14.16-73.94s-4.72-53.99-14.16-73.68M1452.77,241.9c-5.92,7.14-15.42,12.57-28.52,16.27-13.11,3.71-30.2,5.55-51.3,5.55s-38.59-1.85-51.53-5.55c-12.95-3.7-22.3-9.12-28.05-16.27-5.75-7.14-8.63-15.73-8.63-25.79s2.88-18.57,8.63-25.59c5.75-7.01,15.1-12.36,28.05-16.07,12.94-3.7,30.12-5.55,51.53-5.55s38.19,1.85,51.3,5.55c13.1,3.71,22.6,9.06,28.52,16.07,5.91,7.01,8.87,15.54,8.87,25.59s-2.96,18.65-8.87,25.79"/>
  <path class="cls-1" d="M1103.03,96.36c-23.76,10.04-43.15,25.66-56.83,47.57-21.82,34.95-25.87,72.63-14.79,111.9,9.51,33.72,30.11,59.11,61.16,75.41,32.35,16.98,66.84,20.71,102.6,14.44,12.27-2.15,24.02-5.74,35.21-10.88v-97.31c-.24.21-.47.43-.71.64-25.43,22.38-55.04,28-87.25,20.41-19.81-4.67-34.2-18.31-35.13-40.37-.62-14.82,4.85-26.81,17.15-35.38,10.07-7.02,21.6-9.57,33.59-10.41,23.63-1.65,45.57,2.92,64.77,17.66,2.59,1.99,5.11,4.07,7.58,6.2v-98.33c-15.27-6.93-31.3-11.28-48.12-12.93-27.33-2.67-53.85.66-79.23,11.39"/>
  <rect class="cls-1" x="920.34" y="84.09" width="86.92" height="264.37"/>
  <path class="cls-1" d="M563.91,84.09h-68.74l-60.86,264.37h91.07l9.68-50.98,28.85-.03v-.02h12.31s10.01,51.02,10.01,51.02h91.65l-61.72-264.37h-52.25ZM566.69,242.11h-32.93l22.22-116.2,21.57,116.2h-10.86Z"/>
  <rect class="cls-1" x="500.03" y="20.98" width="111.24" height="43.47"/>
  <polygon class="cls-1" points="339.72 84.02 252.8 84.02 252.8 268.16 252.8 344.18 252.8 348.53 421.25 348.53 421.25 268.16 339.72 268.16 339.72 84.02"/>
  <path class="cls-1" d="M1892.14,154.51c-4.64-5.78-10.65,1.06-16.05,4.09-8.05,4.52-15.04,11.93-27.4,12.45,7.18-14.36,13.73-27,19.85-39.86,4.61-9.68,9.95-19.17,9.64-30.52-.34-12.73-4.72-15.82-16.03-10.74-10.74,4.82-18.41,12.89-25.1,22.43-12.11,17.25-24.45,34.36-37.4,50.97-5.26,6.76-12.33,15.04-22,9.54-12.34-7.02-25.23-8.11-38.29-7.69-2.52-6.99,11.59-8.61,4.22-16.12-5.67-5.78-11.5-1.15-17.25.5-11.55,3.32-20.53,9.71-24.28,21.53-2.29,7.21-3.94,4.58-8.44,1.36-9.95-7.11-20.38-5.91-26.65,4.97-4.26,7.4-11.72,11.88-15.19,19.53-1.67,3.68-3.93,6.09-8.13,6.02-6.03-.1-4.02-4.91-4.55-8.1-.96-5.84-4.74-7.34-10.06-7.55-4.86-.19-10.17,1.53-15.03-1.95,3.81-9.13,7.33-17.62,10.88-26.09,4.59-10.95,16.46-24.35,2.97-33.04-13.2-8.49-23.12,6.14-32.27,15.13-1.11,1.09-2.1,2.33-3.06,3.56-18.43,24.08-31.45,52.15-54.27,73.07-3.8,3.49-9.12,10.14-4.63,14.75,5.73,5.89,9.76-1.97,13.7-5.46,19.51-17.24,33.5-39.52,54.73-56.27-30.9,68.04-61.62,136.16-92.86,204.05-5.81,12.63-11.37,25.44-14.04,38.83-2.14,10.74-3.51,23.22,8.04,31.26,12.57,8.75,21.8-.78,30.4-7.02,6.83-4.96,14.16-15.04,9.62-22.15-4.57-7.17-13.76.01-20.44,3.65-.44.24-1.63-.89-2.87-1.61,19.66-62.56,45.38-122.75,72.92-182.19,4.71-10.17,12.08-18.2,25.4-24.39-6.61,17.02-11.45,31.56-20.77,43.66-5.02,6.51-9.23,15.19-3.36,19.03,6.52,4.26,14.1-3.16,19.15-9.42.6-.75.38-2.24,1.04-2.86,11.1-10.59,15.45-26.97,29.78-35.34,2.82,5.5,1.84,11.2,3.67,16.59,5.67,16.69,12.38,18.68,25.61,6.2,8.77-8.28,15.54-17.88,21.6-28.23,10.62-18.13,23.25-33.83,46.15-37.02,6.56-.92,14.07-2.7,16.9,3.91,3.16,7.37-3.83,11.04-9.33,15.58-22.53,18.61-42.4,39.35-51.49,68.46-2.61,8.35-.2,14.39,4.42,19.92,4.78,5.73,11.19,5.23,18.04,2.53,28.73-11.34,45.05-34.39,54.25-61.81,8.24-24.56,18.31-46.84,38.87-63.41,3.52-2.84,6.27-6.74,9.13-10.47,8.03-10.49,17.28-20.05,26.05-29.97,1.16.8,2.33,1.6,3.49,2.4-10.13,19.43-19.96,39.04-30.49,58.25-10.35,18.89-22.67,36.79-29.08,57.63-2.1,6.83-.08,12.57,6.29,16.51,9.76,6.05,15.12-1.75,21.5-6.61,5.99-4.55,7.46-14.78,4.13-16.32-15.71-7.29-3.05-14.77-.79-21.09,3.56-10.01,12.3-16.25,20.45-22.81,12.88-10.37,28.99-15.47,41.46-26.62,5.27-4.71,11.96-9.72,7.23-15.61M1683.03,201.56c-2.74,11.79-5.88,23.49-17.86,32.77-2.59-14.18,1.97-24.87,7.76-35.31,1.63-2.93,1.87-7.97,6.51-6.73,4.05,1.08,4.43,5.68,3.6,9.27M1714.43,279.21c6.31-28.01,23.82-45.53,44.04-64.28-5.74,28.71-23.13,46.31-44.04,64.28"/>
</svg>