<?xml version="1.0" encoding="UTF-8"?>
<svg id="ICONS_CLASICO-POST_AMARILLO" xmlns="http://www.w3.org/2000/svg" viewBox="0 0 1000 1000">
  <defs>
    <style>
      .cls-1 {
        fill: #ffbe2d;
      }
    </style>
  </defs>
  <path class="cls-1" d="M778.65,48.05c-27.28-5.95-57.57-10.68-90.03-14.08-32.6-3.37-66.03-5.08-99.38-5.08-155.61,0-275.69,40.86-356.88,121.47-81.11,80.49-122.24,198.12-122.24,349.62s40.35,270.12,119.97,350.17c79.76,80.24,197.65,120.94,350.42,120.94,31.61,0,63.91-1.94,96.02-5.76,31.74-3.78,62.81-8.69,92.34-14.6,29.8-5.95,55.69-12.95,76.94-20.77l11.65-4.29v-200.12l-23.75,7.66c-30.08,9.68-71.46,18.69-123.02,26.82-51.6,8.14-108.13,12.26-168.01,12.26-52.55,0-99.03-4.87-138.1-14.45-38.53-9.46-71.38-22.92-97.17-39.73-32.93-22.94-57.77-53.6-73.82-91.18-16.46-38.47-24.8-81.17-24.8-126.95,0-41.09,6.48-79.21,19.28-113.32,12.51-33.39,31.92-61.94,57.96-85.07,25.97-23.83,60.27-42.23,102-54.7,42.68-12.76,94.73-19.22,154.66-19.22s116.54,3.72,168.3,11.05c51.31,7.29,92.46,16.25,122.32,26.64l24.16,8.42V70.37l-11.91-4.21c-17.16-6.05-39.67-12.14-66.92-18.11"/>
  <path class="cls-1" d="M677.22,339.92c-26.47-13.01-59.45-19.53-99.01-19.53s-72.56,6.52-99.01,19.53c-26.47,13.03-46.25,32.91-59.34,59.63-13.11,26.74-19.64,60.11-19.64,100.1s6.53,73.92,19.64,100.43c13.09,26.51,32.87,46.38,59.34,59.63,26.45,13.26,59.45,19.88,99.01,19.88s72.54-6.61,99.01-19.88c26.45-13.24,46.34-33.12,59.72-59.63,13.34-26.51,20.03-59.98,20.03-100.43s-6.69-73.36-20.03-100.1c-13.38-26.72-33.28-46.6-59.72-59.63M706.5,539.48c-9.52,11.01-24.78,19.39-45.84,25.09-21.08,5.72-48.56,8.57-82.45,8.57s-62.03-2.85-82.84-8.57c-20.81-5.7-35.84-14.08-45.07-25.09-9.25-11.01-13.88-24.28-13.88-39.79s4.63-28.68,13.88-39.5c9.23-10.8,24.26-19.06,45.07-24.78,20.81-5.72,48.42-8.57,82.84-8.57s61.37,2.85,82.45,8.57c21.06,5.72,36.32,13.98,45.84,24.78,9.5,10.82,14.25,23.99,14.25,39.5s-4.75,28.78-14.25,39.79"/>
</svg>