<?xml version="1.0" encoding="UTF-8"?>
<svg id="ICONS_CLASICO-POST_BLANCOS" xmlns="http://www.w3.org/2000/svg" viewBox="0 0 1000 1000">
  <defs>
    <style>
      .cls-1 {
        fill: #f6f6ea;
      }
    </style>
  </defs>
  <path class="cls-1" d="M794.05,579.7c-6.9-8.48-14.32-16.7-22.24-24.63-36.38-36.37-73.16-54.73-110.37-55.07,37.21-.34,73.99-18.7,110.37-55.07,7.92-7.93,15.34-16.14,22.24-24.62,6.9-8.5,12.86-16.64,17.9-24.44,5.01-7.79,8.81-14.37,11.39-19.72l-39.54-39.54c-4.89,10.04-12.78,22.3-23.71,36.79-10.92,14.5-23.73,29.09-38.42,43.77-14.92,14.93-29.34,26.17-43.23,33.72-13.9,7.55-27.3,11.64-40.2,12.26-12.71.82-25.01-1.45-36.89-6.81-6.48-2.92-12.7-6.64-18.71-11.04l183.76-165.97-41.08-39.14-165.62,183.42c-7.35-8.97-13.08-18.59-17.15-28.87-5.52-13.91-6.94-28.15-4.25-42.72,2.4-11.12,7.31-22.77,14.73-34.94,7.41-12.17,17.64-24.79,30.7-37.84,14.69-14.69,29.38-27.4,44.08-38.13,14.68-10.73,26.94-18.62,36.78-23.71l-38.94-38.94c-6.68,3.11-14.21,7.47-22.59,13.08-8.38,5.6-16.82,11.75-25.28,18.44-8.48,6.68-16.44,13.76-23.9,21.22-31.19,31.19-48.78,62.8-52.76,94.81-3.99-32.01-21.58-63.62-52.77-94.81-7.46-7.46-15.43-14.54-23.9-21.22-8.47-6.69-16.9-12.84-25.28-18.44-8.38-5.61-15.91-9.97-22.59-13.08l-38.94,38.94c9.84,5.09,22.11,12.98,36.79,23.71,14.69,10.73,29.38,23.44,44.07,38.13,13.06,13.05,23.29,25.67,30.71,37.84,7.41,12.17,12.32,23.82,14.72,34.94,2.68,14.57,1.27,28.81-4.25,42.72-4.19,10.58-10.13,20.45-17.78,29.64l-166.32-184.19-41.09,39.14,184.38,166.53c-5.78,4.16-11.77,7.68-17.99,10.48-11.89,5.36-24.18,7.63-36.89,6.81-12.9-.62-26.3-4.71-40.2-12.26-13.9-7.55-28.31-18.79-43.23-33.72-14.69-14.68-27.5-29.27-38.42-43.77-10.92-14.49-18.83-26.75-23.72-36.79l-39.53,39.54c2.58,5.35,6.38,11.93,11.4,19.72,5.03,7.8,10.99,15.94,17.89,24.44,6.9,8.48,14.32,16.69,22.24,24.62,36.38,36.37,73.17,54.73,110.36,55.07-37.19.34-73.98,18.7-110.36,55.07-7.92,7.93-15.34,16.15-22.24,24.63-6.9,8.49-12.86,16.63-17.89,24.43-5.02,7.79-8.82,14.37-11.4,19.72l39.53,39.54c4.89-10.04,12.8-22.3,23.72-36.79,10.92-14.5,23.73-29.09,38.42-43.78s29.33-26.16,43.23-33.71c13.9-7.55,27.3-11.64,40.2-12.26,12.71-.82,25,1.46,36.89,6.81,7.53,3.39,14.7,7.89,21.59,13.27l-186.65,168.58,41.09,39.13,167.66-185.66c6.36,8.23,11.42,16.98,15.11,26.28,5.52,13.91,6.93,28.15,4.25,42.72-2.4,11.12-7.31,22.77-14.72,34.94-7.42,12.17-17.65,24.78-30.71,37.84-14.69,14.7-29.38,27.4-44.07,38.13-14.68,10.73-26.95,18.62-36.79,23.71l38.94,38.95c6.68-3.12,14.21-7.48,22.59-13.09,8.38-5.61,16.81-11.75,25.28-18.44,8.47-6.69,16.44-13.76,23.9-21.22,31.19-31.19,48.78-62.8,52.77-94.81,3.98,32.01,21.57,63.62,52.76,94.81,7.46,7.46,15.42,14.53,23.9,21.22,8.46,6.69,16.9,12.83,25.28,18.44,8.38,5.61,15.91,9.97,22.59,13.09l38.94-38.95c-9.84-5.09-22.1-12.98-36.78-23.71-14.7-10.73-29.39-23.43-44.08-38.13-13.06-13.06-23.29-25.67-30.7-37.84-7.42-12.17-12.33-23.82-14.73-34.94-2.69-14.57-1.27-28.81,4.25-42.72,3.56-8.98,8.39-17.45,14.44-25.43l167.74,184.62,40.98-39.26-186.76-167.64c7.14-5.66,14.58-10.37,22.4-13.89,11.88-5.35,24.18-7.63,36.89-6.81,12.9.62,26.3,4.71,40.2,12.26,13.89,7.55,28.31,18.79,43.23,33.71s27.5,29.28,38.42,43.78c10.93,14.49,18.82,26.75,23.71,36.79l39.54-39.54c-2.58-5.35-6.38-11.93-11.39-19.72-5.04-7.8-11-15.94-17.9-24.43ZM341.83,500c33.08,0,65.31-14.05,96.7-42.07-.43.79-.96,1.49-1.36,2.32-5.19,10.58-7.78,23.79-7.78,39.61s2.59,29.27,7.78,39.76c.46.93,1.06,1.74,1.56,2.63-31.46-28.13-63.76-42.25-96.9-42.25ZM501.12,354.14c3.63,29.43,18.71,58.38,45.27,86.86-2.29-1.62-4.74-3.07-7.35-4.36-10.48-5.15-23.54-7.74-39.2-7.74s-28.72,2.59-39.19,7.74c-.67.33-1.23.77-1.87,1.11,24.71-27.43,38.84-55.3,42.34-83.61ZM501.12,645.87c-3.51-28.44-17.75-56.42-42.64-83.95.75.41,1.4.92,2.17,1.3,10.47,5.25,23.53,7.87,39.19,7.87s28.72-2.62,39.2-7.87c2.97-1.49,5.67-3.24,8.23-5.15-27.1,28.78-42.49,58.04-46.15,87.8ZM550.63,515.63c-3.76,4.36-9.81,7.68-18.15,9.94s-19.21,3.39-32.64,3.39-24.55-1.13-32.78-3.39c-8.24-2.26-14.19-5.58-17.84-9.94-3.67-4.36-5.5-9.61-5.5-15.75s1.83-11.35,5.5-15.63c3.65-4.28,9.6-7.55,17.84-9.82,8.23-2.26,19.16-3.39,32.78-3.39s24.3,1.13,32.64,3.39c8.34,2.27,14.39,5.54,18.15,9.82,3.76,4.28,5.64,9.49,5.64,15.63s-1.88,11.39-5.64,15.75ZM557.77,547.53c1.82-2.46,3.47-5.07,4.91-7.91,5.28-10.49,7.93-23.74,7.93-39.76s-2.65-29.03-7.93-39.61c-1.29-2.57-2.74-4.97-4.32-7.21,33.07,31.28,67.07,46.96,102.02,46.96-35.15,0-69.35,15.87-102.61,47.53Z"/>
  <path class="cls-1" d="M909.38,243.84h-.02c-35.11-70.23-88.18-123.22-157.74-157.47-67.82-33.35-152.79-50.26-252.56-50.26s-184.76,16.91-252.58,50.26c-69.63,34.28-122.43,87.32-156.9,157.66-33.53,68.47-50.52,154.3-50.52,255.11s17,188.16,50.56,256.08c34.43,69.67,87.16,122.65,156.67,157.47,67.82,33.97,152.85,51.19,252.76,51.19s184.93-17.22,252.76-51.19c69.42-34.79,122.42-87.71,157.51-157.28,34.26-67.98,51.61-154.19,51.61-256.26s-17.34-186.78-51.56-255.31M878.53,729.34c-31.51,59.03-77.14,102.05-139.44,131.55-63.19,29.91-143.97,45.08-240.08,45.08s-176.9-15.17-240.08-45.08c-62.25-29.45-107.49-72.42-138.34-131.34-31.3-59.87-47.18-137.39-47.18-230.41s15.89-169.16,47.23-229.62c30.8-59.38,75.98-102.29,138.1-131.17,63.27-29.41,144.12-44.33,240.28-44.33s176.99,14.92,240.26,44.31c62.19,28.95,107.71,71.91,139.2,131.36,31.93,60.43,48.14,137.62,48.14,229.44s-16.19,170.38-48.07,230.19"/>
</svg>