<?xml version="1.0" encoding="UTF-8"?>
<svg id="ICONS_CLASICO-POST_NEGROS" xmlns="http://www.w3.org/2000/svg" viewBox="0 0 1000 1000">
  <defs>
    <style>
      .cls-1 {
        fill: #2a2a2a;
      }
    </style>
  </defs>
  <path class="cls-1" d="M575.61,302.12c-65.8,0-117.71,15.09-155.86,45.14-2.47.21-4.95.41-7.41.66-16.42,1.7-31.46,4.03-45.15,6.98-7.7,1.67-14.48,3.34-20.53,5.01,6.95-16.25,16.94-30.17,30.06-41.7,14.42-13.1,33.08-23.04,55.96-29.81,22.88-6.76,50.24-10.15,82.08-10.15s60.56,1.9,87.68,5.71c27.11,3.8,48.62,8.46,64.54,13.95v-84.35c-8.46-2.95-19.53-5.92-33.2-8.88-13.69-2.96-28.73-5.28-45.14-6.98-16.42-1.68-33.09-2.54-50-2.54-77.6,0-136.43,19.66-176.47,58.99-40.05,39.32-60.07,96.4-60.07,171.25s19.64,132.46,58.94,171.57c31.84,31.69,75.77,50.53,131.78,56.54-2.25,1.01-4.55,1.96-6.89,2.85-18.39,6.97-38.59,10.44-60.57,10.44-24.53,0-47.15-4.48-67.86-13.43-20.72-8.95-37.42-22.63-50.11-41.04-9.31-14.42-16.49-32.08-21.57-52.98-5.07-20.89-7.61-45.26-7.61-73.13,0-31.34,2.11-60.56,6.34-87.68,4.22-27.11,8.88-48.62,13.95-64.54h-83.09c-3.81,10.45-7.19,23.13-10.15,38.06-2.96,14.92-5.39,30.48-7.29,46.64-1.91,16.17-2.86,32.21-2.86,48.13,0,76.11,19.55,133.82,58.67,173.11,39.11,39.3,96.3,58.95,171.57,58.95,65.49,0,117.38-15.32,155.67-45.98.42-.04.84-.08,1.26-.13,16.16-1.9,31.71-4.33,46.64-7.29,9.7-1.92,18.34-4.04,26.15-6.32-.57,1.44-1.12,2.9-1.73,4.32-8.95,20.73-22.63,37.42-41.04,50.11-14.42,9.31-32.08,16.49-52.98,21.57-20.89,5.08-45.26,7.61-73.13,7.61-31.34,0-60.56-2.11-87.68-6.34-27.11-4.22-48.62-8.88-64.54-13.95v83.09c10.44,3.81,23.13,7.2,38.05,10.15,14.93,2.96,30.48,5.39,46.64,7.29,16.17,1.9,32.21,2.85,48.13,2.85,76.11,0,133.82-19.55,173.12-58.67,39.3-39.11,58.95-96.3,58.95-171.57s-20.02-131.93-60.07-171.24c-31.91-31.34-75.78-50.14-131.54-56.51,0-.02,0,0,0-.02,20.84-9.09,43.62-13.63,68.33-13.63,21.98,0,42.18,3.48,60.57,10.44,18.4,6.96,33.94,17.65,46.62,32.09,13.1,14.42,23.04,33.08,29.81,55.96,6.76,22.88,10.15,50.24,10.15,82.08s-1.9,60.56-5.71,87.68c-3.8,27.1-8.46,48.61-13.95,64.54h84.36c2.95-8.46,5.91-19.53,8.88-33.2,2.95-13.69,5.28-28.73,6.97-45.15,1.69-16.42,2.54-33.08,2.54-50,0-77.6-19.66-136.43-58.99-176.47-39.32-40.04-96.41-60.06-171.25-60.06M388.26,542.83c-18.4-12.68-32.06-29.36-41.01-50.07-6.18-14.28-10.16-29.5-12.08-45.59,15.75-5.26,36.7-9.76,62.95-13.44,20.26-2.85,41.69-4.62,64.3-5.34-1.78.71-3.63,1.35-5.29,2.18-11.49,5.76-20.15,14.4-25.95,25.92-5.8,11.52-8.71,26.07-8.71,43.66s2.91,31.87,8.71,43.5c4.9,9.8,11.85,17.46,20.79,23.02-3.67-.7-7.29-1.45-10.77-2.3-20.88-5.07-38.53-12.25-52.93-21.54M500.17,531.8c-14.74,0-26.68-1.25-35.83-3.73-9.16-2.49-15.79-6.08-19.93-10.78-4.13-4.71-6.2-10.43-6.2-17.16s2.06-12.5,6.2-17.3c4.14-4.79,10.77-8.43,19.93-10.91,9.15-2.48,21.1-3.73,35.83-3.73s26.96,1.24,36,3.73c9.05,2.48,15.58,6.12,19.59,10.91,4.02,4.79,6.03,10.55,6.03,17.3,0,6.74-2,12.46-6.03,17.16-4.02,4.7-10.55,8.29-19.59,10.78-9.04,2.48-21.04,3.73-36,3.73M623.67,467.95c14.42,12.67,25.11,28.2,32.06,46.58,4.47,11.8,7.49,24.35,9.08,37.64-15.75,4.88-36.69,9.39-62.94,13.47-20.01,3.13-41.18,5.08-63.49,5.89,1.61-.64,3.31-1.21,4.82-1.95,11.5-5.66,20.1-14.3,25.79-25.92,5.7-11.63,8.54-26.13,8.54-43.5s-2.84-32.14-8.54-43.66c-4.87-9.85-11.99-17.47-21.11-23.11,6.95,1.35,13.59,2.92,19.86,4.77,22.87,6.76,41.51,16.69,55.92,29.79"/>
  <path class="cls-1" d="M909.38,243.84h-.01c-35.11-70.23-88.18-123.22-157.74-157.47-67.82-33.35-152.79-50.26-252.56-50.26s-184.76,16.91-252.58,50.26c-69.63,34.28-122.43,87.32-156.9,157.66-33.53,68.47-50.52,154.3-50.52,255.11s17,188.16,50.56,256.08c34.43,69.67,87.16,122.65,156.67,157.47,67.82,33.97,152.85,51.19,252.76,51.19s184.93-17.22,252.76-51.19c69.42-34.78,122.42-87.71,157.51-157.28,34.25-67.98,51.6-154.19,51.6-256.26s-17.33-186.77-51.56-255.31M878.53,729.34c-31.51,59.03-77.14,102.05-139.44,131.55-63.19,29.91-143.97,45.08-240.08,45.08s-176.9-15.17-240.08-45.08c-62.25-29.45-107.49-72.42-138.34-131.34-31.3-59.86-47.18-137.39-47.18-230.41s15.89-169.16,47.23-229.62c30.8-59.38,75.98-102.29,138.1-131.17,63.27-29.41,144.12-44.33,240.28-44.33s176.99,14.92,240.26,44.31c62.19,28.95,107.71,71.91,139.2,131.37,31.93,60.43,48.14,137.61,48.14,229.44s-16.19,170.38-48.07,230.19"/>
</svg>