<?xml version="1.0" encoding="UTF-8"?>
<svg id="ICONS_CLASICO-POST_NEGROS" xmlns="http://www.w3.org/2000/svg" viewBox="0 0 1000 1000">
  <defs>
    <style>
      .cls-1 {
        fill: #2a2a2a;
      }
    </style>
  </defs>
  <path class="cls-1" d="M746.84,535.45l75.73,3.85-1.38-56.72-72.28,3.68c-11.38-29.97-27.42-55.53-48.32-76.53-12.58-12.64-26.81-23.48-42.58-32.65l99.79-91.31-41.35-38.87-99.33,111.45c-29.18-10.18-62.41-15.97-99.69-17.36l7.17-140.98-56.73,1.38,7.13,139.96c-36.92,1.97-69.8,8.5-98.62,19.59l-101.63-114.04-41.34,38.87,103.47,94.69c-13.99,8.75-26.71,18.95-38.15,30.59-20.37,20.74-36.13,45.88-47.48,75.23l-72.45-3.69-1.38,56.72,75.94-3.86c11.17,27.03,26.27,50.3,45.38,69.75,12.29,12.51,26.1,23.3,41.34,32.48l-106.66,97.6,41.34,38.87,104.83-117.62c28.07,10.36,59.89,16.48,95.47,18.37l-7.18,140.82,56.73,1.38-7.22-141.84c35.91-1.34,68.05-6.76,96.44-16.25l102.63,115.15,41.35-38.87-103.01-94.27c17.07-9.54,32.37-21,45.8-34.5,19.63-19.72,35.03-43.42,46.25-71.05M637.77,442.09c8.86,13.73,16.05,30,21.63,48.73l-88.76,4.53-.68.08c-1.06-10.37-3.45-19.43-7.27-27.07-.4-.81-.92-1.49-1.36-2.26l10.9-10.51,42.7-39.07c8.55,7.43,16.19,15.92,22.85,25.58M550.63,523.75c-3.77,4.36-9.81,7.67-18.14,9.94-8.34,2.26-19.22,3.39-32.64,3.39s-24.55-1.13-32.79-3.39c-8.24-2.26-14.19-5.58-17.84-9.94-3.66-4.36-5.49-9.61-5.49-15.75s1.83-11.35,5.49-15.63c3.66-4.28,9.6-7.55,17.84-9.82,8.23-2.26,19.16-3.39,32.79-3.39s24.3,1.13,32.64,3.39c8.33,2.27,14.38,5.54,18.14,9.82,3.76,4.29,5.65,9.5,5.65,15.63s-1.89,11.39-5.65,15.75M579.03,393.98c1.52.66,2.97,1.41,4.46,2.11l-33.96,38.1-10.02,10.83c-.16-.08-.3-.19-.46-.27-7.5-3.69-16.38-6-26.53-7.05l2.99-58.85c22.63,1.61,43.83,6.61,63.52,15.12M428.47,390.48c15.12-5.72,31.29-9.4,48.48-11.1l3.02,59.34c-7.18,1.28-13.66,3.25-19.33,6.03-2.11,1.04-4.03,2.27-5.93,3.52l-13.04-14.08-31.43-35.27c5.79-3.18,11.84-6.03,18.22-8.44M373.83,428.09c2.27-2.58,4.63-5.02,7.05-7.39l38.11,34.88,16.79,16.2c-2.9,6.93-4.87,14.8-5.76,23.78l-.66-.21-89.54-4.56c7.91-25.48,19.22-46.41,34.01-62.69M373.83,588.61c-13.72-15.09-24.45-34.17-32.25-57.18l87.07-4.43c.01-3.22.11-6.43.22-9.65l-.22,9.65h2.21c1.26,7.97,3.3,15.11,6.31,21.21.02.04.05.07.07.11l-18.24,17.6-35.53,32.52c-3.34-3.11-6.58-6.36-9.63-9.84M428.47,625.74c-5.32-2.01-10.44-4.3-15.35-6.85l28.57-32.05,16-17.28c1,.58,1.91,1.25,2.96,1.78,5.68,2.85,12.18,4.85,19.37,6.15l-3.03,59.37c-17.2-1.71-33.39-5.38-48.52-11.11M579.03,622.25c-19.7,8.52-40.91,13.52-63.56,15.12l-2.99-58.85c8.98-.94,16.87-2.98,23.78-6.02l13.28,14.34,30.95,34.73c-.49.22-.95.47-1.44.68M572.22,565.93l-12.79-12.34c1.13-1.74,2.28-3.46,3.25-5.37,3.07-6.1,5.14-13.25,6.43-21.21h2.23l-.22-9.66c.11,3.22.21,6.44.22,9.66l86.36,4.39c-5.32,16.43-11.96,30.85-19.94,43.22-7.36,10.67-15.87,19.98-25.52,27.94l-40.02-36.63Z"/>
  <path class="cls-1" d="M909.38,243.84h-.01c-35.11-70.23-88.18-123.22-157.74-157.47-67.82-33.35-152.79-50.26-252.56-50.26s-184.76,16.91-252.58,50.26c-69.63,34.28-122.43,87.32-156.9,157.66-33.53,68.47-50.52,154.3-50.52,255.11s17,188.16,50.56,256.08c34.43,69.67,87.16,122.65,156.67,157.47,67.82,33.97,152.85,51.19,252.76,51.19s184.93-17.22,252.76-51.19c69.42-34.79,122.42-87.71,157.51-157.28,34.26-67.98,51.61-154.19,51.61-256.26s-17.34-186.78-51.56-255.31M878.53,729.34c-31.51,59.03-77.14,102.05-139.44,131.55-63.19,29.91-143.97,45.08-240.08,45.08s-176.89-15.17-240.08-45.08c-62.25-29.45-107.49-72.42-138.34-131.34-31.31-59.87-47.18-137.39-47.18-230.41s15.89-169.16,47.23-229.62c30.81-59.38,75.98-102.29,138.1-131.17,63.27-29.41,144.12-44.33,240.28-44.33s176.99,14.92,240.26,44.31c62.19,28.95,107.72,71.91,139.2,131.36,31.93,60.43,48.14,137.62,48.14,229.44s-16.19,170.38-48.07,230.19"/>
</svg>