<?xml version="1.0" encoding="UTF-8"?>
<svg id="ICONS_CLASICO-POST_VERDE-MILITAR" xmlns="http://www.w3.org/2000/svg" viewBox="0 0 1000 1000">
  <defs>
    <style>
      .cls-1 {
        fill: #00685b;
      }
    </style>
  </defs>
  <rect class="cls-1" x="426.06" y="198.96" width="147.87" height="57.78"/>
  <rect class="cls-1" x="426.06" y="747.58" width="147.87" height="57.78"/>
  <path class="cls-1" d="M687.52,326.47c-27.02-13.72-60.73-20.59-101.15-20.59-15.4,0-29.8.98-43.2,2.93-13.33-1.95-27.61-2.93-42.84-2.93s-29.8.98-43.2,2.93c-13.33-1.95-27.61-2.93-42.85-2.93-40.85,0-74.67,6.87-101.47,20.59-26.8,13.73-47.02,34.85-60.62,63.37-13.62,28.52-20.43,65.23-20.43,110.15s6.7,81.2,20.1,109.89c13.4,28.7,33.6,49.92,60.63,63.64,27.01,13.72,60.94,20.58,101.79,20.58,15.23,0,29.5-.98,42.83-2.93,13.43,1.95,27.83,2.93,43.23,2.93s29.5-.98,42.83-2.93c13.42,1.95,27.83,2.93,43.22,2.93,40.42,0,74.13-6.87,101.15-20.58,27.01-13.72,47.22-34.93,60.63-63.64,13.4-28.69,20.1-65.32,20.1-109.89s-6.7-81.63-20.1-110.15c-13.4-28.52-33.62-49.65-60.63-63.37M499.26,610.16c-23.19-8.91-40.42-22.46-51.69-40.64-7.44-11.99-12.37-26.19-14.89-42.52,1.2,4.52,2.61,8.82,4.49,12.62,5.19,10.49,13.01,18.36,23.49,23.61,10.47,5.24,23.53,7.87,39.19,7.87s28.72-2.62,39.19-7.87c10.47-5.25,18.35-13.12,23.64-23.61,1.99-3.95,3.48-8.41,4.72-13.14-2.51,16.54-7.46,30.93-14.97,43.04-11.28,18.18-28.4,31.73-51.37,40.64-.29.11-.61.21-.9.32-.3-.11-.61-.2-.91-.32M499.26,389.85c.29-.11.61-.21.91-.32.29.11.6.2.9.32,22.97,8.91,40.09,22.46,51.37,40.63,7.48,12.06,12.42,26.37,14.94,42.82-1.24-4.68-2.72-9.11-4.69-13.06-5.29-10.58-13.17-18.45-23.64-23.6-10.48-5.16-23.54-7.73-39.19-7.73s-28.72,2.58-39.19,7.73c-10.48,5.16-18.3,13.02-23.49,23.6-1.86,3.8-3.27,8.06-4.46,12.53,2.54-16.23,7.46-30.36,14.86-42.3,11.27-18.17,28.5-31.72,51.69-40.63M556.28,499.88c0,6.15-1.88,11.39-5.64,15.75-3.77,4.36-9.81,7.67-18.15,9.94-8.34,2.27-19.22,3.39-32.64,3.39s-24.55-1.13-32.79-3.39c-8.23-2.26-14.18-5.57-17.84-9.94-3.66-4.36-5.49-9.61-5.49-15.75s1.83-11.35,5.49-15.63c3.66-4.28,9.61-7.55,17.84-9.82,8.24-2.26,19.16-3.39,32.79-3.39s24.29,1.13,32.64,3.39c8.34,2.27,14.38,5.54,18.15,9.82,3.76,4.28,5.64,9.5,5.64,15.63M361.52,430.48c11.27-18.17,28.51-31.72,51.7-40.63,4.24-1.63,8.73-3.06,13.36-4.39-.76,1.47-1.57,2.87-2.3,4.39-13.62,28.52-20.42,65.23-20.42,110.15s6.7,81.2,20.1,109.89c.74,1.58,1.57,3.05,2.36,4.58-4.53-1.31-8.95-2.72-13.1-4.31-23.19-8.91-40.43-22.46-51.7-40.64-11.28-18.18-16.91-41.35-16.91-69.52s5.63-51.34,16.91-69.52M638.48,569.52c-11.28,18.18-28.4,31.73-51.37,40.64-4.27,1.66-8.81,3.11-13.49,4.45.81-1.58,1.67-3.09,2.42-4.72,13.4-28.69,20.1-65.32,20.1-109.89s-6.7-81.63-20.1-110.15c-.71-1.52-1.52-2.93-2.28-4.41,4.63,1.34,9.12,2.78,13.34,4.41,22.97,8.91,40.09,22.46,51.37,40.63,11.27,18.18,16.91,41.37,16.91,69.52s-5.64,51.34-16.91,69.52M275.47,569.52c-11.28-18.18-16.91-41.35-16.91-69.52s5.63-51.34,16.91-69.52c11.27-18.17,28.5-31.72,51.69-40.63,4.24-1.63,8.73-3.06,13.36-4.39-.76,1.47-1.57,2.87-2.3,4.39-13.62,28.52-20.42,65.23-20.42,110.15s6.7,81.2,20.1,109.89c.74,1.58,1.57,3.05,2.36,4.58-4.53-1.31-8.95-2.72-13.1-4.31-23.19-8.91-40.43-22.46-51.69-40.64M724.53,569.52c-11.28,18.18-28.4,31.73-51.38,40.64-4.27,1.66-8.81,3.11-13.49,4.45.8-1.58,1.66-3.09,2.42-4.72,13.4-28.69,20.1-65.32,20.1-109.89s-6.7-81.63-20.1-110.15c-.72-1.52-1.52-2.93-2.28-4.41,4.62,1.34,9.12,2.78,13.34,4.41,22.98,8.91,40.09,22.46,51.38,40.63,11.27,18.18,16.91,41.37,16.91,69.52s-5.64,51.34-16.91,69.52"/>
  <path class="cls-1" d="M909.38,243.84h-.01c-35.11-70.23-88.18-123.22-157.74-157.47-67.81-33.35-152.79-50.26-252.56-50.26s-184.76,16.91-252.58,50.26c-69.63,34.28-122.43,87.32-156.9,157.66-33.53,68.47-50.52,154.3-50.52,255.11s17,188.16,50.57,256.08c34.43,69.67,87.15,122.65,156.67,157.47,67.81,33.97,152.85,51.19,252.76,51.19s184.93-17.22,252.76-51.19c69.42-34.78,122.42-87.71,157.51-157.28,34.25-67.98,51.61-154.19,51.61-256.26s-17.34-186.77-51.56-255.31M878.53,729.34c-31.51,59.03-77.14,102.05-139.44,131.55-63.19,29.91-143.97,45.08-240.08,45.08s-176.9-15.17-240.08-45.08c-62.25-29.45-107.49-72.42-138.34-131.34-31.3-59.86-47.18-137.39-47.18-230.41s15.9-169.16,47.23-229.62c30.8-59.38,75.98-102.29,138.09-131.17,63.27-29.41,144.12-44.33,240.28-44.33s176.99,14.92,240.26,44.31c62.19,28.95,107.71,71.91,139.2,131.37,31.93,60.43,48.13,137.61,48.13,229.44s-16.19,170.38-48.07,230.19"/>
</svg>