<?xml version="1.0" encoding="UTF-8"?>
<svg id="ICONS_CLASICO-POST_AMARILLO" xmlns="http://www.w3.org/2000/svg" viewBox="0 0 1000 1000">
  <defs>
    <style>
      .cls-1 {
        fill: #ffbe2d;
      }
    </style>
  </defs>
  <path class="cls-1" d="M617.97,261.84v88.73c1.25.28,2.54.54,3.77.84,23.54,5.71,43.44,13.81,59.69,24.29,20.74,14.29,36.15,33.11,46.24,56.45,10.08,23.33,15.13,48.83,15.13,76.46,0,24.77-3.92,47.52-11.77,68.24-7.85,20.73-19.89,38.24-36.16,52.52-16.24,14.76-37.26,25.96-63.04,33.58-4.45,1.32-9.11,2.48-13.86,3.56v87.87c37.44-10.97,68.57-28.56,93.3-52.84,45.12-44.3,67.67-108.61,67.67-192.93s-22.13-149.23-66.41-193.29c-24.94-24.82-56.46-42.65-94.56-53.48"/>
  <path class="cls-1" d="M407.59,315.32c-24.93-24.82-56.46-42.65-94.56-53.48v88.73c1.25.28,2.53.54,3.77.84,23.54,5.72,43.44,13.81,59.69,24.29,20.74,14.3,36.15,33.11,46.23,56.45,10.09,23.33,15.14,48.82,15.14,76.46,0,24.76-3.92,47.52-11.77,68.24-7.84,20.72-19.89,38.23-36.15,52.52-16.24,14.76-37.26,25.96-63.05,33.58-4.45,1.32-9.1,2.47-13.85,3.56v87.86c37.44-10.97,68.57-28.56,93.3-52.83,45.12-44.3,67.67-108.61,67.67-192.93s-22.13-149.23-66.41-193.29"/>
  <path class="cls-1" d="M560.06,315.32c-24.93-24.82-56.46-42.65-94.56-53.48v88.73c1.25.28,2.53.54,3.77.84,23.54,5.72,43.44,13.81,59.68,24.29,20.75,14.3,36.15,33.11,46.24,56.45,10.09,23.33,15.14,48.82,15.14,76.46,0,24.76-3.92,47.52-11.77,68.24-7.84,20.72-19.89,38.23-36.15,52.52-16.25,14.76-37.26,25.96-63.05,33.58-4.45,1.32-9.1,2.47-13.85,3.56v87.86c37.44-10.97,68.57-28.56,93.3-52.83,45.12-44.3,67.67-108.61,67.67-192.93s-22.13-149.23-66.41-193.29"/>
  <path class="cls-1" d="M365.59,548.95c5.7-11.63,8.55-26.13,8.55-43.51s-2.85-32.13-8.55-43.66c-5.69-11.51-14.28-20.16-25.78-25.92-11.5-5.76-25.84-8.64-43.04-8.64s-31.54,2.88-43.04,8.64c-11.5,5.76-20.15,14.4-25.96,25.92-5.8,11.52-8.71,26.08-8.71,43.66s2.9,31.88,8.71,43.51c5.81,11.61,14.46,20.25,25.96,25.92,11.5,5.66,25.84,8.49,43.04,8.49s31.54-2.83,43.04-8.49c11.5-5.67,20.09-14.3,25.78-25.92M296.76,537.09c-14.08,0-25.49-1.24-34.24-3.73-8.74-2.49-15.09-6.08-19.04-10.78-3.95-4.71-5.92-10.43-5.92-17.16s1.97-12.5,5.92-17.3c3.95-4.79,10.29-8.43,19.04-10.91,8.75-2.48,20.16-3.72,34.24-3.72s25.76,1.24,34.4,3.72c8.64,2.48,14.88,6.12,18.72,10.91,3.84,4.79,5.76,10.55,5.76,17.3s-1.92,12.46-5.76,17.16c-3.84,4.7-10.08,8.29-18.72,10.78-8.64,2.48-20.1,3.73-34.4,3.73"/>
  <path class="cls-1" d="M909.38,243.84h-.01c-35.11-70.23-88.18-123.22-157.74-157.47-67.82-33.35-152.79-50.26-252.56-50.26s-184.76,16.91-252.58,50.26c-69.63,34.28-122.43,87.32-156.9,157.66-33.53,68.47-50.52,154.3-50.52,255.11s17.01,188.16,50.57,256.08c34.43,69.67,87.16,122.65,156.67,157.47,67.82,33.97,152.85,51.19,252.76,51.19s184.93-17.22,252.76-51.19c69.42-34.79,122.42-87.71,157.51-157.28,34.26-67.98,51.61-154.19,51.61-256.26s-17.34-186.78-51.56-255.31M878.53,729.34c-31.51,59.03-77.14,102.05-139.44,131.55-63.19,29.91-143.97,45.08-240.08,45.08s-176.9-15.17-240.08-45.08c-62.25-29.45-107.49-72.42-138.34-131.34-31.3-59.87-47.18-137.39-47.18-230.41s15.89-169.16,47.23-229.62c30.8-59.38,75.98-102.29,138.1-131.17,63.27-29.41,144.12-44.33,240.28-44.33s176.99,14.92,240.26,44.31c62.19,28.95,107.71,71.91,139.2,131.36,31.93,60.43,48.13,137.62,48.13,229.44s-16.18,170.38-48.07,230.19"/>
</svg>