<?xml version="1.0" encoding="UTF-8"?>
<svg id="ICONS_CLASICO-POST_BLANCOS" xmlns="http://www.w3.org/2000/svg" viewBox="0 0 1000 1000">
  <defs>
    <style>
      .cls-1 {
        fill: #f6f6ea;
      }
    </style>
  </defs>
  <path class="cls-1" d="M575.05,301.78c-65.74,0-117.61,15.08-155.73,45.1-2.47.21-4.94.41-7.4.66-16.4,1.7-31.43,4.02-45.11,6.97-7.69,1.67-14.47,3.33-20.51,5,6.94-16.24,16.92-30.14,30.03-41.66,14.41-13.09,33.05-23.02,55.92-29.79,22.86-6.75,50.2-10.14,82.01-10.14s60.51,1.9,87.61,5.71c27.09,3.8,48.58,8.46,64.49,13.94v-84.28c-8.46-2.95-19.51-5.91-33.18-8.87-13.68-2.95-28.7-5.28-45.11-6.97-16.4-1.68-33.06-2.54-49.96-2.54-77.54,0-136.32,19.65-176.33,58.94-40.02,39.29-60.02,96.33-60.02,171.11s19.63,132.35,58.9,171.43c31.81,31.66,75.71,50.49,131.68,56.5-2.25,1.01-4.54,1.96-6.88,2.85-18.37,6.97-38.56,10.44-60.52,10.44-24.51,0-47.12-4.47-67.81-13.42-20.71-8.95-37.39-22.61-50.07-41.01-9.3-14.41-16.48-32.06-21.55-52.93-5.07-20.88-7.6-45.23-7.6-73.07,0-31.32,2.11-60.51,6.34-87.61,4.22-27.09,8.87-48.58,13.94-64.49h-83.02c-3.8,10.44-7.18,23.11-10.14,38.03-2.95,14.91-5.39,30.46-7.28,46.6-1.91,16.16-2.86,32.19-2.86,48.09,0,76.05,19.53,133.72,58.62,172.97,39.07,39.27,96.22,58.9,171.43,58.9,65.43,0,117.28-15.31,155.54-45.95.42-.04.84-.08,1.26-.13,16.15-1.9,31.69-4.33,46.6-7.29,9.69-1.92,18.33-4.03,26.13-6.31-.57,1.44-1.12,2.89-1.73,4.31-8.95,20.71-22.61,37.39-41.01,50.07-14.4,9.3-32.06,16.48-52.93,21.55-20.88,5.07-45.23,7.61-73.07,7.61-31.32,0-60.51-2.11-87.61-6.34-27.09-4.22-48.58-8.87-64.49-13.94v83.02c10.44,3.8,23.11,7.19,38.02,10.14,14.91,2.95,30.46,5.39,46.6,7.29,16.16,1.9,32.19,2.85,48.09,2.85,76.05,0,133.72-19.53,172.98-58.62,39.27-39.07,58.9-96.22,58.9-171.43s-20.01-131.82-60.02-171.11c-31.88-31.31-75.72-50.1-131.43-56.47.16-.07.3-.15.46-.22,20.7-8.95,43.3-13.42,67.81-13.42,21.96,0,42.14,3.47,60.52,10.44,18.38,6.96,33.91,17.64,46.58,32.06,13.09,14.41,23.02,33.05,29.79,55.92,6.75,22.86,10.14,50.2,10.14,82.01s-1.9,60.51-5.71,87.61c-3.79,27.08-8.45,48.57-13.94,64.49h84.29c2.95-8.46,5.91-19.52,8.87-33.18,2.95-13.68,5.27-28.71,6.97-45.11,1.69-16.4,2.54-33.06,2.54-49.96,0-77.54-19.64-136.32-58.94-176.33-39.29-40.01-96.33-60.01-171.11-60.01M388.26,542.83c-18.4-12.68-32.06-29.36-41.01-50.07-6.18-14.28-10.16-29.5-12.08-45.59,15.75-5.26,36.7-9.76,62.95-13.44,20.26-2.85,41.69-4.62,64.3-5.34-1.78.71-3.63,1.35-5.29,2.18-11.49,5.76-20.15,14.4-25.95,25.92-5.8,11.52-8.71,26.07-8.71,43.66s2.91,31.87,8.71,43.5c4.9,9.8,11.85,17.46,20.79,23.02-3.67-.7-7.29-1.45-10.77-2.3-20.88-5.07-38.53-12.25-52.93-21.54M500.17,531.8c-14.74,0-26.68-1.25-35.83-3.73-9.16-2.49-15.79-6.08-19.93-10.78-4.13-4.71-6.2-10.43-6.2-17.16s2.06-12.5,6.2-17.3c4.14-4.79,10.77-8.43,19.93-10.91,9.15-2.48,21.1-3.73,35.83-3.73s26.96,1.24,36,3.73c9.05,2.48,15.58,6.12,19.59,10.91,4.02,4.79,6.03,10.55,6.03,17.3,0,6.74-2,12.46-6.03,17.16-4.02,4.7-10.55,8.29-19.59,10.78-9.04,2.48-21.04,3.73-36,3.73M623.67,467.95c14.42,12.67,25.11,28.2,32.06,46.58,4.47,11.8,7.49,24.35,9.08,37.64-15.75,4.88-36.69,9.39-62.94,13.47-20.01,3.13-41.18,5.08-63.49,5.89,1.61-.64,3.31-1.21,4.82-1.95,11.5-5.66,20.1-14.3,25.79-25.92,5.7-11.63,8.54-26.13,8.54-43.5s-2.84-32.14-8.54-43.66c-4.87-9.85-11.99-17.47-21.11-23.11,6.95,1.35,13.59,2.92,19.86,4.77,22.87,6.76,41.51,16.69,55.92,29.79"/>
  <path class="cls-1" d="M909.38,243.84h-.01c-35.11-70.23-88.18-123.22-157.74-157.47-67.82-33.35-152.79-50.26-252.56-50.26s-184.76,16.91-252.58,50.26c-69.63,34.28-122.43,87.32-156.9,157.66-33.53,68.47-50.52,154.3-50.52,255.11s17,188.16,50.56,256.08c34.43,69.67,87.16,122.65,156.67,157.47,67.82,33.97,152.85,51.19,252.76,51.19s184.93-17.22,252.76-51.19c69.42-34.78,122.42-87.71,157.51-157.28,34.25-67.98,51.6-154.19,51.6-256.26s-17.33-186.77-51.56-255.31M878.53,729.34c-31.51,59.03-77.14,102.05-139.44,131.55-63.19,29.91-143.97,45.08-240.08,45.08s-176.9-15.17-240.08-45.08c-62.25-29.45-107.49-72.42-138.34-131.34-31.3-59.86-47.18-137.39-47.18-230.41s15.89-169.16,47.23-229.62c30.8-59.38,75.98-102.29,138.1-131.17,63.27-29.41,144.12-44.33,240.28-44.33s176.99,14.92,240.26,44.31c62.19,28.95,107.71,71.91,139.2,131.37,31.93,60.43,48.14,137.61,48.14,229.44s-16.19,170.38-48.07,230.19"/>
</svg>