<?xml version="1.0" encoding="UTF-8"?>
<svg id="Capa_1" data-name="Capa 1" xmlns="http://www.w3.org/2000/svg" viewBox="0 0 1920 474.64">
  <defs>
    <style>
      .cls-1 {
        fill: #c5f600;
      }
    </style>
  </defs>
  <path class="cls-1" d="M1259,95.17c-8.58-1.87-18.11-3.36-28.32-4.43-10.25-1.06-20.77-1.6-31.26-1.6-48.94,0-86.71,12.85-112.24,38.2-25.51,25.32-38.45,62.31-38.45,109.96s12.69,84.96,37.73,110.13c25.08,25.24,62.17,38.04,110.21,38.04,9.94,0,20.1-.61,30.2-1.81,9.98-1.19,19.75-2.73,29.04-4.59,9.37-1.87,17.52-4.07,24.2-6.53l3.67-1.35v-62.94l-7.47,2.41c-9.46,3.04-22.47,5.88-38.69,8.43-16.23,2.56-34.01,3.85-52.84,3.85-16.53,0-31.15-1.53-43.44-4.54-12.12-2.98-22.45-7.21-30.56-12.5-10.36-7.22-18.17-16.86-23.22-28.68-5.18-12.1-7.8-25.53-7.8-39.93,0-12.92,2.04-24.91,6.06-35.64,3.93-10.5,10.04-19.48,18.23-26.76,8.17-7.5,18.96-13.28,32.08-17.2,13.42-4.01,29.79-6.04,48.64-6.04s36.65,1.17,52.93,3.48c16.14,2.29,29.08,5.11,38.47,8.38l7.6,2.65v-63.98l-3.74-1.32c-5.4-1.9-12.48-3.82-21.05-5.7"/>
  <path class="cls-1" d="M1227.09,186.97c-8.32-4.09-18.7-6.14-31.14-6.14s-22.82,2.05-31.14,6.14c-8.32,4.1-14.55,10.35-18.66,18.75-4.12,8.41-6.18,18.91-6.18,31.48s2.06,23.25,6.18,31.59c4.12,8.34,10.34,14.59,18.66,18.75,8.32,4.17,18.7,6.25,31.14,6.25s22.82-2.08,31.14-6.25c8.32-4.17,14.58-10.42,18.78-18.75,4.2-8.34,6.3-18.86,6.3-31.59s-2.1-23.07-6.3-31.48c-4.21-8.4-10.47-14.66-18.78-18.75M1236.3,249.74c-2.99,3.46-7.79,6.1-14.42,7.89-6.63,1.8-15.27,2.7-25.93,2.7s-19.51-.9-26.05-2.7c-6.54-1.79-11.27-4.43-14.17-7.89-2.91-3.46-4.37-7.64-4.37-12.51s1.46-9.02,4.37-12.42c2.9-3.4,7.63-6,14.17-7.79,6.54-1.8,15.23-2.7,26.05-2.7s19.3.9,25.93,2.7c6.62,1.8,11.42,4.4,14.42,7.79,2.99,3.4,4.48,7.54,4.48,12.42s-1.49,9.05-4.48,12.51"/>
  <path class="cls-1" d="M84.47,289.05c-6.99,6.4-15.92,9.59-26.79,9.59-13.46,0-24.04-4.31-31.75-12.95-7.7-8.68-11.55-20.57-11.55-35.68,0-16.33,4.38-28.92,13.14-37.77,7.62-7.71,17.3-11.56,29.07-11.56,15.75,0,27.25,5.17,34.54,15.49,4.02,5.81,6.18,11.62,6.48,17.46h-19.56c-1.27-4.48-2.9-7.87-4.89-10.15-3.56-4.07-8.83-6.1-15.81-6.1s-12.72,2.87-16.81,8.6c-4.1,5.74-6.16,13.86-6.16,24.35s2.17,18.35,6.5,23.58c4.34,5.23,9.86,7.84,16.54,7.84s12.08-2.24,15.68-6.73c1.99-2.41,3.64-6.03,4.95-10.85h19.37c-1.7,10.2-6.02,18.5-12.95,24.88"/>
  <polygon class="cls-1" points="164.35 202.46 183.9 202.46 183.9 279.22 230.24 279.22 230.24 296.04 164.35 296.04 164.35 202.46"/>
  <path class="cls-1" d="M350.56,276.8h-34.47l-6.48,19.24h-20.44l33.39-93.58h22.09l33.14,93.58h-21.2l-6.03-19.24ZM345.1,260.68l-11.69-36.83-12.06,36.83h23.75ZM322.76,194.97l12.19-18.98h20.19l-19.3,18.98h-13.08Z"/>
  <path class="cls-1" d="M475.63,282.52c4.62,0,8.36-.51,11.24-1.52,5.46-1.95,8.18-5.57,8.18-10.86,0-3.09-1.35-5.49-4.06-7.18-2.7-1.65-6.96-3.1-12.76-4.37l-9.9-2.23c-9.73-2.2-16.46-4.59-20.19-7.18-6.31-4.32-9.46-11.06-9.46-20.25,0-8.38,3.05-15.34,9.14-20.89,6.09-5.54,15.05-8.31,26.86-8.31,9.86,0,18.27,2.61,25.23,7.84,6.96,5.23,10.61,12.81,10.95,22.76h-18.8c-.34-5.63-2.79-9.63-7.36-12-3.05-1.56-6.84-2.35-11.36-2.35-5.04,0-9.06,1.02-12.06,3.05-3.01,2.04-4.51,4.87-4.51,8.51,0,3.34,1.48,5.84,4.44,7.49,1.9,1.1,5.98,2.4,12.2,3.87l16.12,3.87c7.07,1.7,12.4,3.96,16,6.79,5.59,4.41,8.38,10.78,8.38,19.11s-3.28,15.66-9.81,21.3c-6.54,5.65-15.78,8.48-27.71,8.48s-21.78-2.79-28.76-8.35c-6.98-5.57-10.47-13.22-10.47-22.95h18.66c.6,4.27,1.76,7.47,3.49,9.58,3.17,3.85,8.61,5.78,16.31,5.78"/>
  <rect class="cls-1" x="578.87" y="202.46" width="19.43" height="93.58"/>
  <path class="cls-1" d="M734.56,289.05c-6.99,6.4-15.92,9.59-26.79,9.59-13.46,0-24.04-4.31-31.75-12.95-7.7-8.68-11.55-20.57-11.55-35.68,0-16.33,4.38-28.92,13.14-37.77,7.62-7.71,17.3-11.56,29.07-11.56,15.75,0,27.25,5.17,34.54,15.49,4.02,5.81,6.18,11.62,6.48,17.46h-19.56c-1.27-4.48-2.9-7.87-4.89-10.15-3.56-4.07-8.83-6.1-15.81-6.1s-12.72,2.87-16.81,8.6c-4.1,5.74-6.16,13.86-6.16,24.35s2.17,18.35,6.5,23.58c4.34,5.23,9.86,7.84,16.54,7.84s12.08-2.24,15.68-6.73c1.99-2.41,3.64-6.03,4.95-10.85h19.37c-1.7,10.2-6.02,18.5-12.95,24.88"/>
  <path class="cls-1" d="M855.83,298.65c-13.37,0-23.6-3.64-30.67-10.92-9.48-8.93-14.22-21.79-14.22-38.6s4.74-30.01,14.22-38.59c7.07-7.29,17.29-10.92,30.67-10.92s23.59,3.64,30.67,10.92c9.44,8.59,14.16,21.46,14.16,38.59s-4.71,29.67-14.16,38.6c-7.07,7.28-17.29,10.92-30.67,10.92M874.31,273.5c4.53-5.71,6.79-13.83,6.79-24.38s-2.27-18.61-6.82-24.35-10.7-8.61-18.44-8.61-13.93,2.86-18.53,8.58c-4.62,5.71-6.92,13.83-6.92,24.37s2.31,18.67,6.92,24.38c4.6,5.71,10.79,8.58,18.53,8.58s13.9-2.86,18.47-8.58"/>
  <path class="cls-1" d="M1446.78,262.39h-19.88v33.65h-19.43v-93.58h40.76c9.39,0,16.88,2.41,22.47,7.23,5.59,4.82,8.38,12.3,8.38,22.41,0,11.05-2.79,18.86-8.38,23.43-5.59,4.57-13.57,6.86-23.93,6.86M1455.92,242.9c2.54-2.24,3.81-5.8,3.81-10.66s-1.28-8.34-3.84-10.42c-2.56-2.07-6.15-3.1-10.76-3.1h-18.22v27.55h18.22c4.62,0,8.22-1.12,10.8-3.37"/>
  <path class="cls-1" d="M1587.15,298.65c-13.37,0-23.6-3.64-30.67-10.92-9.48-8.93-14.22-21.79-14.22-38.6s4.75-30.01,14.22-38.59c7.07-7.29,17.29-10.92,30.67-10.92s23.59,3.64,30.67,10.92c9.44,8.59,14.16,21.46,14.16,38.59s-4.71,29.67-14.16,38.6c-7.07,7.28-17.29,10.92-30.67,10.92M1605.63,273.5c4.53-5.71,6.79-13.83,6.79-24.38s-2.27-18.61-6.82-24.35c-4.55-5.73-10.7-8.61-18.44-8.61s-13.93,2.86-18.53,8.58c-4.62,5.71-6.92,13.83-6.92,24.37s2.31,18.67,6.92,24.38c4.6,5.71,10.79,8.58,18.53,8.58s13.9-2.86,18.47-8.58"/>
  <path class="cls-1" d="M1732.86,282.52c4.62,0,8.37-.51,11.24-1.52,5.46-1.95,8.19-5.57,8.19-10.86,0-3.09-1.35-5.49-4.06-7.18-2.7-1.65-6.96-3.1-12.76-4.37l-9.9-2.23c-9.73-2.2-16.46-4.59-20.19-7.18-6.31-4.32-9.46-11.06-9.46-20.25,0-8.38,3.05-15.34,9.14-20.89,6.09-5.54,15.05-8.31,26.86-8.31,9.86,0,18.27,2.61,25.23,7.84,6.96,5.23,10.61,12.81,10.95,22.76h-18.8c-.34-5.63-2.79-9.63-7.36-12-3.05-1.56-6.84-2.35-11.36-2.35-5.04,0-9.06,1.02-12.06,3.05-3.01,2.04-4.51,4.87-4.51,8.51,0,3.34,1.48,5.84,4.44,7.49,1.9,1.1,5.98,2.4,12.2,3.87l16.12,3.87c7.07,1.7,12.4,3.96,16,6.79,5.59,4.41,8.38,10.78,8.38,19.11s-3.28,15.66-9.81,21.3c-6.54,5.65-15.78,8.48-27.71,8.48s-21.78-2.79-28.76-8.35c-6.98-5.57-10.47-13.22-10.47-22.95h18.66c.6,4.27,1.76,7.47,3.49,9.58,3.17,3.85,8.61,5.78,16.31,5.78"/>
  <polygon class="cls-1" points="1905.62 202.46 1905.62 219.03 1877.63 219.03 1877.63 296.04 1857.94 296.04 1857.94 219.03 1829.82 219.03 1829.82 202.46 1905.62 202.46"/>
</svg>